<svg width="22" height="22" viewBox="0 0 22 22" fill="none" xmlns="http://www.w3.org/2000/svg">
<path d="M16.6084 12.326C18.9854 12.326 20.9189 14.2605 20.9189 16.6375C20.9189 17.5642 20.6248 18.4229 20.126 19.1258L21.4785 20.4627C21.7735 20.7537 21.7754 21.2292 21.4844 21.5242C21.3375 21.6719 21.1449 21.7468 20.9521 21.7469V21.7479C20.7621 21.7479 20.5708 21.6761 20.4248 21.5311L19.0596 20.1824C18.3636 20.6653 17.5183 20.9481 16.6084 20.9481C14.2317 20.9478 12.2981 19.0142 12.2979 16.6375C12.2979 14.2606 14.2316 12.3262 16.6084 12.326ZM16.6084 13.827C15.0586 13.8272 13.7979 15.0886 13.7979 16.6385C13.7981 18.1882 15.0587 19.4488 16.6084 19.449C18.1583 19.449 19.4187 18.1883 19.4189 16.6385C19.4189 15.0885 18.1574 13.827 16.6084 13.827ZM6.98828 0.252739C7.92013 0.222837 8.72297 0.625407 10.1768 1.3543L13.5088 3.0252C13.9554 3.24919 14.4266 3.36112 14.9219 3.36114H17.001C19.029 3.36114 20.1461 3.36117 20.9531 4.19317C21.7511 5.01416 21.751 6.15825 21.751 8.23418V11.0877C21.751 11.5017 21.415 11.8377 21.001 11.8377C20.587 11.8377 20.251 11.5017 20.251 11.0877V8.23418C20.251 6.55018 20.251 5.62209 19.877 5.23809C19.5259 4.8761 18.742 4.86114 17.001 4.86114H14.9219C14.8616 4.86114 14.8044 4.86043 14.75 4.86016V10.0223C14.7499 10.4362 14.4139 10.7723 14 10.7723C13.5861 10.7723 13.2501 10.4362 13.25 10.0223V4.56622C13.1301 4.51006 12.9944 4.44462 12.8359 4.36504L9.50488 2.69415C8.69179 2.28641 8.15977 2.02479 7.75 1.88262V15.3553C8.50385 15.4914 9.18618 15.861 9.79199 16.1912C9.98097 16.2942 10.16 16.3923 10.3359 16.4803C10.7059 16.6663 10.8559 17.1161 10.6699 17.4871C10.4839 17.8571 10.0331 18.007 9.66309 17.8211C9.46421 17.7222 9.26611 17.6135 9.07422 17.5086C8.51734 17.2047 7.94124 16.8903 7.40234 16.8162C6.65634 16.7132 5.99356 17.1026 5.22656 17.5516L5.09766 17.6268C3.82775 18.3697 3.11001 18.7898 2.41504 18.7898L2.41602 18.7918C2.31414 18.7918 2.21322 18.7834 2.11035 18.7654C1.57735 18.6684 1.09684 18.3809 0.756836 17.9549C0.251007 17.3199 0.250977 16.4597 0.250977 14.7479V6.51348C0.250977 5.25348 0.251117 4.55906 0.620117 3.90606C0.99012 3.25012 1.57856 2.90605 2.64551 2.28008L3.88574 1.5545C5.28674 0.735497 6.05928 0.282739 6.98828 0.252739ZM6.25 1.96758C5.84649 2.14717 5.34356 2.43818 4.64355 2.84747L3.40625 3.5711C2.47525 4.1161 2.09076 4.34841 1.92676 4.64141C1.75794 4.94042 1.75098 5.40293 1.75098 6.51153V14.7459C1.75098 15.8889 1.75071 16.7934 1.92871 17.0164C2.0417 17.1584 2.202 17.2539 2.37598 17.2859C2.63398 17.3319 3.38489 16.8908 4.33789 16.3328L4.46875 16.2566C5.00733 15.9408 5.59007 15.6003 6.25 15.4227V1.96758Z" fill="#2E2E2E"/>
</svg>
