<svg width="40" height="40" viewBox="0 0 40 40" fill="none" xmlns="http://www.w3.org/2000/svg">
<g clip-path="url(#clip0_526_170)">
<path d="M38.6651 39.8681C38.6693 39.8239 38.6761 39.7806 38.6855 39.7381C38.694 39.6956 38.705 39.6523 38.7178 39.6107C38.7305 39.569 38.745 39.5274 38.762 39.4866C38.779 39.4467 38.7977 39.4067 38.818 39.3685C38.8384 39.3294 38.8614 39.292 38.886 39.2555C38.9098 39.2189 38.937 39.1841 38.9642 39.1493C38.9914 39.1161 39.0211 39.0821 39.0526 39.0515C39.0832 39.0201 39.1163 38.9904 39.1503 38.9632C39.1834 38.936 39.22 38.9096 39.2565 38.885C39.293 38.8612 39.3313 38.8383 39.3695 38.8179C39.4077 38.7975 39.4477 38.7788 39.4876 38.7618C39.5276 38.7448 39.57 38.7295 39.6117 38.7168C39.6533 38.704 39.6958 38.693 39.7391 38.6845C39.7816 38.6751 39.8258 38.6692 39.8691 38.6649C39.9133 38.6607 39.9575 38.6581 40.0017 38.6581V37.3402C39.2607 37.3402 38.66 36.7403 38.66 35.9994C38.66 35.2585 39.2607 34.6577 40.0017 34.6577V33.3398C39.2607 33.3398 38.66 32.7391 38.66 31.999C38.66 31.2589 39.2607 30.6564 40.0017 30.6564V29.3394C39.2607 29.3394 38.66 28.7386 38.66 27.9977C38.66 27.2568 39.2607 26.656 40.0017 26.656V25.339C39.2607 25.339 38.66 24.7382 38.66 23.9973C38.66 23.2563 39.2607 22.6556 40.0017 22.6556V21.3385C39.2607 21.3385 38.66 20.7378 38.66 19.9969C38.66 19.2559 39.2607 18.6552 40.0017 18.6552V17.3381C39.2607 17.3381 38.66 16.7374 38.66 15.9964C38.66 15.2555 39.2607 14.6547 40.0017 14.6547V13.3377C39.2607 13.3377 38.66 12.7369 38.66 11.996C38.66 11.2551 39.2607 10.6543 40.0017 10.6543V9.33727C39.2607 9.33727 38.66 8.73652 38.66 7.99558C38.66 7.25463 39.2607 6.65389 40.0017 6.65389V5.33684C39.2607 5.33684 38.66 4.7361 38.66 3.99515C38.66 3.25421 39.2607 2.65346 40.0017 2.65346V1.33642C39.9584 1.33642 39.9142 1.33387 39.87 1.32962C39.8266 1.32537 39.7825 1.31857 39.74 1.31008C39.6966 1.30073 39.6542 1.29053 39.6125 1.27694C39.5709 1.26419 39.5293 1.24975 39.4885 1.23275C39.4485 1.21661 39.4077 1.19706 39.3704 1.17667C39.3313 1.15543 39.2939 1.13334 39.2573 1.1087C39.2208 1.0849 39.1851 1.05856 39.1511 1.03137C39.1171 1.00333 39.084 0.973592 39.0534 0.943002C39.022 0.911563 38.9922 0.879274 38.965 0.844436C38.9379 0.811297 38.9107 0.77476 38.8869 0.738222C38.8622 0.701685 38.8401 0.663448 38.8189 0.626061C38.7985 0.586974 38.7798 0.547038 38.7628 0.507102C38.7467 0.467166 38.7314 0.42553 38.7186 0.383045C38.7059 0.340559 38.6948 0.298923 38.6863 0.256438C38.677 0.213103 38.671 0.168918 38.6659 0.126433C38.6617 0.082248 38.6592 0.0380632 38.6592 -0.00527191H37.3421C37.3421 0.735673 36.7414 1.33642 36.0004 1.33642C35.2595 1.33642 34.6579 0.740772 34.6579 -0.000173665H33.3408C33.3408 0.740772 32.7401 1.34152 31.9991 1.34152C31.2582 1.34152 30.6583 0.740772 30.6583 -0.000173665H29.3413C29.3413 0.740772 28.7405 1.34152 27.9996 1.34152C27.2586 1.34152 26.6587 0.740772 26.6587 -0.000173665H25.3417C25.3417 0.740772 24.7409 1.34152 24 1.34152C23.259 1.34152 22.6583 0.740772 22.6583 -0.000173665H21.3413C21.3413 0.740772 20.7405 1.34152 19.9996 1.34152C19.2586 1.34152 18.6587 0.740772 18.6587 -0.000173665H17.3417C17.3417 0.740772 16.7409 1.34152 16 1.34152C15.259 1.34152 14.6583 0.740772 14.6583 -0.000173665H13.3413C13.3413 0.740772 12.7405 1.34152 11.9996 1.34152C11.2586 1.34152 10.6587 0.740772 10.6587 -0.000173665H9.34168C9.34168 0.740772 8.74094 1.34152 7.99999 1.34152C7.25905 1.34152 6.65831 0.740772 6.65831 -0.000173665H5.34126C5.34126 0.740772 4.74051 1.34152 3.99957 1.34152C3.25862 1.34152 2.65873 0.740772 2.65873 -0.000173665H1.34168C1.34168 0.0440111 1.33913 0.0873462 1.33489 0.131531C1.33064 0.174866 1.32384 0.219051 1.31449 0.261536C1.306 0.304022 1.29495 0.346507 1.2822 0.388143C1.26946 0.429779 1.25501 0.471414 1.23802 0.5122C1.22103 0.552136 1.20233 0.592922 1.18109 0.631159C1.1607 0.669396 1.13775 0.706783 1.11396 0.743321C1.08932 0.779858 1.06298 0.815546 1.03579 0.849534C1.0086 0.883523 0.978859 0.916661 0.947419 0.9481C0.91683 0.97869 0.883691 1.00843 0.849703 1.03647C0.815715 1.06366 0.780027 1.09 0.74349 1.11379C0.706952 1.13843 0.668715 1.16053 0.630478 1.18177C0.592242 1.20216 0.552305 1.22171 0.512369 1.23785C0.472433 1.254 0.429947 1.26929 0.388312 1.28204C0.346676 1.29478 0.303341 1.30583 0.260855 1.31517C0.21837 1.32367 0.174185 1.33047 0.13085 1.33472C0.0866654 1.33897 0.0424806 1.34152 -0.000854492 1.34152V2.65856C0.74094 2.65856 1.34083 3.25931 1.34083 4.00025C1.34083 4.7412 0.740091 5.34109 -0.000854492 5.34194V6.65899C0.74094 6.65899 1.34083 7.25973 1.34083 8.00068C1.34083 8.74162 0.740091 9.34151 -0.000854492 9.34236V10.6594C0.74094 10.6594 1.34083 11.2602 1.34083 12.0011C1.34083 12.742 0.740091 13.3419 -0.000854492 13.3428V14.6598C0.74094 14.6598 1.34083 15.2606 1.34083 16.0015C1.34083 16.7425 0.740091 17.3432 -0.000854492 17.3432V18.6603C0.74094 18.6603 1.34083 19.261 1.34083 20.0019C1.34083 20.7429 0.740091 21.3428 -0.000854492 21.3436V22.6607C0.74094 22.6607 1.34083 23.2614 1.34083 24.0024C1.34083 24.7433 0.740091 25.3432 -0.000854492 25.3441V26.6611C0.74094 26.6611 1.34083 27.2619 1.34083 28.0028C1.34083 28.7437 0.740091 29.3436 -0.000854492 29.3445V30.6624C0.74094 30.6624 1.34083 31.2623 1.34083 32.0032C1.34083 32.7442 0.740091 33.3449 -0.000854492 33.3458V34.6628C0.74094 34.6628 1.34083 35.2627 1.34083 36.0045C1.34083 36.7463 0.740091 37.3453 -0.000854492 37.3462V38.6632C0.0433303 38.6632 0.0875151 38.6649 0.1317 38.6692C0.175035 38.6734 0.21922 38.6802 0.261705 38.6896C0.30504 38.6981 0.347526 38.7091 0.389161 38.7219C0.430797 38.7346 0.472433 38.7491 0.513219 38.7669C0.553155 38.783 0.593941 38.8017 0.631328 38.823C0.670415 38.8434 0.707802 38.8663 0.744339 38.8901C0.780877 38.9147 0.816564 38.9411 0.850553 38.9683C0.884541 38.9955 0.91768 39.0261 0.948269 39.0566C0.979708 39.0872 1.00945 39.1204 1.03664 39.1544C1.06383 39.1884 1.09102 39.224 1.11481 39.2606C1.1386 39.2971 1.16155 39.3354 1.18194 39.3736C1.20318 39.4127 1.22188 39.4518 1.23887 39.4917C1.25501 39.5316 1.27031 39.5733 1.28305 39.6158C1.2958 39.6574 1.30685 39.7007 1.31534 39.7432C1.32469 39.7865 1.33064 39.8299 1.33574 39.8732C1.33998 39.9166 1.34253 39.9607 1.34253 40.0049H2.65958C2.65958 39.2631 3.26032 38.6632 4.00127 38.6632C4.74221 38.6632 5.34296 39.2631 5.34296 40.0049H6.66001C6.66001 39.2631 7.26075 38.6632 8.00169 38.6632C8.74264 38.6632 9.34338 39.2631 9.34338 40.0049H10.6604C10.6604 39.2631 11.2612 38.6632 12.0021 38.6632C12.7431 38.6632 13.3438 39.2631 13.3438 40.0049H14.6609C14.6609 39.2631 15.2616 38.6632 16.0025 38.6632C16.7435 38.6632 17.3442 39.2631 17.3442 40.0049H18.6613C18.6613 39.2631 19.262 38.6632 20.003 38.6632C20.7439 38.6632 21.3447 39.2631 21.3447 40.0049H22.6617C22.6617 39.2631 23.2624 38.6632 24.0034 38.6632C24.7443 38.6632 25.3451 39.2631 25.3451 40.0049H26.6621C26.6621 39.2631 27.2629 38.6632 28.0038 38.6632C28.7448 38.6632 29.3455 39.2631 29.3455 40.0049H30.6625C30.6625 39.2631 31.2633 38.6632 32.0042 38.6632C32.7452 38.6632 33.3459 39.2631 33.3459 40.0049H34.663C34.663 39.264 35.2637 38.6632 36.0047 38.6632C36.7456 38.6632 37.3464 39.264 37.3464 40.0049H38.6634C38.6634 39.9607 38.666 39.9166 38.6702 39.8732L38.6651 39.8681Z" fill="#1C1C1C"/>
<path d="M5.89018 25.2924C5.72533 24.8879 5.48572 24.7104 5.03027 24.6602V24.5719H7.76208V24.6857C7.47148 24.6985 7.02879 24.7486 7.02879 24.9517C7.02879 24.9644 7.05428 25.0655 7.11716 25.2176C7.37037 25.8626 8.00255 27.5322 8.57186 28.8731C8.96357 27.8611 9.30515 27.0012 9.69772 26.0903C9.57111 25.7742 9.41987 25.4199 9.3179 25.2049C9.15306 24.8378 8.90069 24.6993 8.54637 24.6611V24.5727H11.1652V24.6738C10.8746 24.6866 10.4438 24.7121 10.4438 24.927C10.4438 24.9398 10.4693 25.0664 10.5321 25.2176C10.7726 25.8626 11.4175 27.6334 11.9359 28.8858C12.4414 27.5705 12.8969 26.4446 13.2512 25.4071C13.2894 25.2933 13.3141 25.1539 13.3141 25.0783C13.3141 24.7749 12.5425 24.6483 12.3531 24.6483V24.5727H14.4654V24.6483C14.1111 24.6866 13.6429 24.9772 13.4789 25.4071C12.9224 26.7989 12.619 27.5951 12.0497 29.0371C11.873 29.4798 11.7464 29.8214 11.5688 30.3779H11.3411C10.7845 28.8476 10.2789 27.5195 9.78524 26.2798C9.41817 27.1023 9.05194 28.1015 8.68487 29.0371C8.52002 29.467 8.38152 29.8214 8.20393 30.3779H7.95072C7.05258 28.1134 6.59713 27.0386 5.88933 25.2933L5.89018 25.2924Z" fill="white"/>
<path d="M14.4536 30.2003C14.6813 30.1876 14.8334 30.1621 15.0101 30.112C15.2506 30.0363 15.3517 29.8214 15.3517 29.5426V21.7899C15.3517 21.4432 15.0874 21.1526 14.7416 21.1212L14.1621 21.0677V20.9028H16.5022V25.4437H16.5277C17.0086 24.9755 17.4887 24.4062 18.5772 24.4062C19.7532 24.4062 20.2979 25.2032 20.2979 26.4047V29.4908C20.2979 29.7687 20.399 29.9972 20.6267 30.0984C20.8034 30.174 20.9555 30.1867 21.1832 30.1995V30.2878H18.1982V30.1995C18.4259 30.1867 18.6154 30.1612 18.793 30.1111C19.0335 30.0355 19.1346 29.8205 19.1346 29.5418V26.2526C19.1346 25.3799 18.629 24.899 18.0844 24.899C17.1607 24.899 16.6424 25.4428 16.5031 25.7343V29.4781C16.5031 29.7559 16.6169 29.9836 16.8446 30.0856C17.0341 30.174 17.2245 30.1867 17.4394 30.1995V30.2878H14.4544V30.1995L14.4536 30.2003Z" fill="white"/>
<path d="M21.8528 30.2003C22.0805 30.1876 22.2326 30.1621 22.4094 30.1119C22.6498 30.0363 22.751 29.8213 22.751 29.5426V25.5456C22.7255 25.2797 22.6116 25.0145 22.4094 24.8752C22.2573 24.7741 21.8911 24.7231 21.6633 24.7104V24.5455H23.9023V29.4789C23.9023 29.7568 24.0162 29.9845 24.2439 30.0865C24.4334 30.1748 24.6237 30.1876 24.8387 30.2003V30.2887H21.8537V30.2003H21.8528ZM22.4476 22.0159C22.4476 21.586 22.8019 21.2189 23.2191 21.2189C23.6873 21.2189 24.0162 21.5605 24.0162 21.9649C24.0162 22.4076 23.6746 22.7875 23.2191 22.7875C22.8019 22.7875 22.4476 22.4331 22.4476 22.0159Z" fill="white"/>
<path d="M26.2543 28.67V24.7741H25.04V24.5719H26.2798V22.6362H27.3801V24.5719H29.1127V24.7741H27.392V28.5187C27.392 29.2401 27.5943 29.7967 28.3658 29.7967C28.9351 29.7967 29.213 29.2019 29.2894 28.7218H29.416C29.3149 29.6327 28.7201 30.417 27.7846 30.417C26.7471 30.417 26.2543 29.7976 26.2543 28.6717V28.67Z" fill="white"/>
<path d="M29.8214 27.3793C29.8214 25.8617 30.7952 24.407 32.4776 24.407C34.16 24.407 34.8432 25.5329 34.8432 26.7599V26.8737H31.0739V27.0887C31.0739 28.7201 31.5166 30.0482 32.9585 30.0482C33.945 30.0482 34.3877 29.6183 34.8687 28.8467L34.9698 28.9096C34.5271 29.8078 33.6799 30.4399 32.6169 30.4399C30.7068 30.4399 29.8214 29.0481 29.8214 27.3784V27.3793ZM33.6162 26.7216C33.6162 25.7096 33.4267 24.5336 32.4649 24.5336C31.6678 24.5336 31.1113 25.4318 31.073 26.7471L33.6154 26.7216H33.6162Z" fill="white"/>
<path d="M12.1908 34.6315H11.6665L11.0012 33.713C10.9519 33.7147 10.912 33.7156 10.8805 33.7156C10.8678 33.7156 10.8542 33.7156 10.8397 33.7156C10.8253 33.7156 10.81 33.7147 10.7947 33.713V34.284C10.7947 34.4081 10.8083 34.4845 10.8355 34.5143C10.872 34.5568 10.9273 34.578 11.0003 34.578H11.0768V34.6315H10.2347V34.578H10.3087C10.3919 34.578 10.4514 34.5508 10.4871 34.4964C10.5075 34.4667 10.5177 34.3953 10.5177 34.2832V33.0137C10.5177 32.8896 10.5041 32.8132 10.4769 32.7834C10.4395 32.7409 10.3834 32.7197 10.3087 32.7197H10.2347V32.6662H10.9502C11.1592 32.6662 11.313 32.6815 11.4116 32.7121C11.511 32.7426 11.5951 32.7987 11.664 32.8803C11.7328 32.9619 11.7676 33.0596 11.7676 33.1726C11.7676 33.2933 11.7285 33.3986 11.6495 33.487C11.5705 33.5754 11.449 33.6391 11.2833 33.6756L11.6894 34.239C11.7821 34.3681 11.8619 34.4548 11.9282 34.4973C11.9945 34.5398 12.082 34.567 12.1891 34.5789V34.6324L12.1908 34.6315ZM10.7955 33.6212C10.8142 33.6212 10.8295 33.6212 10.8431 33.6212C10.8567 33.6212 10.8678 33.6212 10.8763 33.6212C11.0641 33.6212 11.2051 33.5805 11.3003 33.4997C11.3954 33.419 11.443 33.3153 11.443 33.1896C11.443 33.0638 11.4048 32.967 11.3275 32.8905C11.2501 32.814 11.149 32.7749 11.0224 32.7749C10.9663 32.7749 10.8907 32.7843 10.7947 32.8021V33.6195L10.7955 33.6212Z" fill="white"/>
<path d="M13.2002 32.7741V33.5507H13.6319C13.744 33.5507 13.8188 33.5337 13.8562 33.4997C13.9063 33.4555 13.9344 33.3774 13.9403 33.2652H13.9938V33.9492H13.9403C13.9267 33.8532 13.9131 33.792 13.8995 33.7648C13.8825 33.7309 13.8536 33.7045 13.8137 33.685C13.7738 33.6654 13.7134 33.6561 13.631 33.6561H13.1994V34.3036C13.1994 34.3902 13.2036 34.4438 13.2113 34.4625C13.2189 34.4811 13.2325 34.4964 13.2521 34.5075C13.2716 34.5185 13.3081 34.5245 13.3625 34.5245H13.6956C13.8069 34.5245 13.8876 34.5168 13.9378 34.5015C13.9879 34.4862 14.0363 34.4557 14.0831 34.4106C14.1425 34.3503 14.2046 34.2602 14.2675 34.1396H14.3252L14.1553 34.6324H12.6411V34.5789H12.7108C12.7575 34.5789 12.8009 34.5678 12.8425 34.5457C12.8731 34.5304 12.8943 34.5075 12.9054 34.476C12.9164 34.4455 12.9224 34.3817 12.9224 34.2866V33.0103C12.9224 32.8854 12.9096 32.8089 12.885 32.78C12.8501 32.7418 12.7924 32.7223 12.7108 32.7223H12.6411V32.6687H14.1553L14.1774 33.0995H14.1205C14.1001 32.9959 14.078 32.9253 14.0533 32.8862C14.0287 32.8472 13.9921 32.8183 13.9437 32.7979C13.9046 32.7834 13.8367 32.7758 13.7398 32.7758H13.2011L13.2002 32.7741Z" fill="white"/>
<path d="M16.1692 32.622V33.3018H16.1156C16.0986 33.1717 16.0672 33.0672 16.0222 32.9899C15.9771 32.9126 15.9134 32.8514 15.8301 32.8055C15.7469 32.7605 15.661 32.7375 15.5718 32.7375C15.4715 32.7375 15.3883 32.7681 15.3229 32.8293C15.2574 32.8905 15.2243 32.9602 15.2243 33.0383C15.2243 33.0987 15.2447 33.1531 15.2863 33.2023C15.3466 33.2746 15.4885 33.3714 15.7137 33.4921C15.8973 33.5907 16.0222 33.6663 16.0901 33.719C16.1573 33.7716 16.2091 33.8337 16.2448 33.905C16.2813 33.9764 16.2992 34.0512 16.2992 34.1294C16.2992 34.2781 16.2414 34.4064 16.1258 34.5143C16.0103 34.6222 15.8616 34.6757 15.6806 34.6757C15.6236 34.6757 15.5701 34.6715 15.52 34.663C15.4902 34.6579 15.4282 34.6409 15.3339 34.6103C15.2396 34.5797 15.1801 34.5644 15.1546 34.5644C15.1291 34.5644 15.1113 34.5712 15.0977 34.5865C15.0832 34.601 15.073 34.6307 15.0662 34.6766H15.0127V34.0028H15.0662C15.0909 34.1438 15.1249 34.2492 15.1674 34.3197C15.2098 34.3902 15.2744 34.448 15.3619 34.4939C15.4495 34.5406 15.5455 34.5636 15.6491 34.5636C15.7698 34.5636 15.865 34.5313 15.9355 34.4684C16.0052 34.4047 16.0409 34.329 16.0409 34.2424C16.0409 34.1939 16.0273 34.1455 16.0009 34.0962C15.9746 34.0469 15.9329 34.0011 15.8769 33.9586C15.8395 33.9297 15.7367 33.8677 15.5684 33.7742C15.4002 33.6799 15.2812 33.6051 15.2098 33.549C15.1385 33.4929 15.0849 33.4309 15.0484 33.3638C15.0119 33.2958 14.9932 33.2219 14.9932 33.1403C14.9932 32.9993 15.0475 32.8777 15.1555 32.7758C15.2634 32.6738 15.401 32.6228 15.5684 32.6228C15.6729 32.6228 15.7834 32.6483 15.9007 32.6993C15.955 32.7231 15.9924 32.7358 16.0154 32.7358C16.0409 32.7358 16.0612 32.7282 16.0765 32.7138C16.0927 32.6985 16.1054 32.6687 16.1148 32.6228H16.1683L16.1692 32.622Z" fill="white"/>
<path d="M17.7903 34.578V34.6315H16.9482V34.578H17.0179C17.0995 34.578 17.1581 34.5542 17.1947 34.5066C17.2176 34.4761 17.2295 34.4013 17.2295 34.2832V33.0137C17.2295 32.9143 17.2235 32.8489 17.2108 32.8166C17.2015 32.7928 17.1811 32.7715 17.1513 32.7545C17.1088 32.7316 17.0647 32.7197 17.0179 32.7197H16.9482V32.6662H17.7903V32.7197H17.7189C17.6391 32.7197 17.5804 32.7435 17.5439 32.7902C17.5201 32.8208 17.5073 32.8956 17.5073 33.0137V34.2832C17.5073 34.3826 17.5133 34.448 17.526 34.4803C17.5354 34.5041 17.5558 34.5253 17.5872 34.5423C17.6289 34.5653 17.673 34.5772 17.7189 34.5772H17.7903V34.578Z" fill="white"/>
<path d="M18.3291 34.6315V34.578H18.403C18.4863 34.578 18.5449 34.5517 18.5798 34.4981C18.601 34.4659 18.6121 34.3945 18.6121 34.284V33.0146C18.6121 32.8922 18.5985 32.8149 18.5713 32.7843C18.5339 32.7418 18.4778 32.7206 18.403 32.7206H18.3291V32.667H19.1287C19.4227 32.667 19.6461 32.7002 19.7991 32.7673C19.952 32.8344 20.0753 32.9449 20.1687 33.1004C20.2622 33.2559 20.3089 33.436 20.3089 33.6391C20.3089 33.9127 20.2256 34.1413 20.06 34.3248C19.8739 34.5296 19.5892 34.6324 19.2077 34.6324H18.33L18.3291 34.6315ZM18.8899 34.4896C19.0123 34.5168 19.1151 34.5304 19.1984 34.5304C19.4227 34.5304 19.6088 34.4514 19.7566 34.2942C19.9045 34.137 19.9784 33.9229 19.9784 33.6535C19.9784 33.3842 19.9045 33.1684 19.7566 33.012C19.6088 32.8557 19.4193 32.7775 19.1873 32.7775C19.1006 32.7775 19.0012 32.7919 18.8899 32.8191V34.4896Z" fill="white"/>
<path d="M21.4577 32.7741V33.5507H21.8893C22.0015 33.5507 22.0763 33.5337 22.1136 33.4997C22.1638 33.4555 22.1918 33.3774 22.1978 33.2652H22.2513V33.9492H22.1978C22.1842 33.8532 22.1706 33.792 22.157 33.7648C22.14 33.7309 22.1111 33.7045 22.0712 33.685C22.0312 33.6654 21.9709 33.6561 21.8885 33.6561H21.4568V34.3036C21.4568 34.3902 21.4611 34.4438 21.4687 34.4625C21.4764 34.4811 21.49 34.4964 21.5095 34.5075C21.529 34.5185 21.5656 34.5245 21.62 34.5245H21.953C22.0644 34.5245 22.1451 34.5168 22.1952 34.5015C22.2453 34.4862 22.2938 34.4557 22.3405 34.4106C22.4 34.3503 22.462 34.2602 22.5249 34.1396H22.5827L22.4127 34.6324H20.8986V34.5789H20.9682C21.015 34.5789 21.0583 34.5678 21.0999 34.5457C21.1305 34.5304 21.1518 34.5075 21.1628 34.476C21.1739 34.4455 21.1798 34.3817 21.1798 34.2866V33.0103C21.1798 32.8854 21.1671 32.8089 21.1424 32.78C21.1076 32.7418 21.0498 32.7223 20.9682 32.7223H20.8986V32.6687H22.4127L22.4348 33.0995H22.3779C22.3575 32.9959 22.3354 32.9253 22.3108 32.8862C22.2861 32.8472 22.2496 32.8183 22.2012 32.7979C22.1621 32.7834 22.0941 32.7758 21.9972 32.7758H21.4585L21.4577 32.7741Z" fill="white"/>
<path d="M23.0262 32.6662H23.5599L24.7613 34.1396V33.0061C24.7613 32.8854 24.7478 32.8098 24.7206 32.78C24.6849 32.7392 24.6279 32.7189 24.5506 32.7189H24.4826V32.6653H25.1667V32.7189H25.097C25.0137 32.7189 24.9551 32.7435 24.9202 32.7945C24.899 32.8251 24.888 32.8956 24.888 33.0061V34.6621H24.8361L23.5403 33.08V34.29C23.5403 34.4106 23.5531 34.4862 23.5794 34.516C23.6159 34.5568 23.6729 34.5772 23.7493 34.5772H23.819V34.6307H23.135V34.5772H23.203C23.2871 34.5772 23.3466 34.5517 23.3814 34.5015C23.4027 34.471 23.4137 34.4004 23.4137 34.29V32.9236C23.3568 32.8574 23.3134 32.8132 23.2837 32.7919C23.254 32.7707 23.2106 32.7511 23.1537 32.7324C23.1257 32.724 23.0832 32.7197 23.0262 32.7197V32.6662Z" fill="white"/>
<path d="M27.4107 32.622L27.4557 33.2899H27.4107C27.3504 33.0902 27.2654 32.9457 27.1541 32.8582C27.0428 32.7698 26.9094 32.7265 26.7539 32.7265C26.623 32.7265 26.5058 32.7596 26.4004 32.8259C26.295 32.8922 26.2126 32.9976 26.1523 33.1429C26.092 33.2882 26.0614 33.4683 26.0614 33.6833C26.0614 33.8609 26.0894 34.0155 26.1472 34.1455C26.2041 34.2764 26.2899 34.3758 26.4047 34.4455C26.5194 34.5151 26.6494 34.55 26.7964 34.55C26.9238 34.55 27.0368 34.5228 27.1337 34.4684C27.2306 34.414 27.3385 34.3053 27.4557 34.143L27.5008 34.1719C27.4022 34.3469 27.2875 34.4743 27.1558 34.5559C27.0241 34.6375 26.8686 34.6774 26.6876 34.6774C26.3622 34.6774 26.1098 34.5568 25.9314 34.3155C25.798 34.1362 25.7317 33.9246 25.7317 33.6807C25.7317 33.4844 25.7759 33.3043 25.8634 33.1403C25.9518 32.9763 26.0724 32.8489 26.2262 32.7588C26.38 32.6687 26.5483 32.6237 26.7309 32.6237C26.8728 32.6237 27.0131 32.6585 27.1516 32.7282C27.1923 32.7494 27.2212 32.7605 27.2382 32.7605C27.2646 32.7605 27.2867 32.7511 27.3062 32.7333C27.3317 32.707 27.3495 32.6713 27.3597 32.6245H27.4107V32.622Z" fill="white"/>
<path d="M28.6394 32.7741V33.5507H29.0711C29.1832 33.5507 29.258 33.5337 29.2954 33.4997C29.3455 33.4555 29.3736 33.3774 29.3795 33.2652H29.4331V33.9492H29.3795C29.3659 33.8532 29.3523 33.792 29.3387 33.7648C29.3217 33.7309 29.2929 33.7045 29.2529 33.685C29.213 33.6654 29.1527 33.6561 29.0702 33.6561H28.6386V34.3036C28.6386 34.3902 28.6428 34.4438 28.6505 34.4625C28.6581 34.4811 28.6717 34.4964 28.6913 34.5075C28.7108 34.5185 28.7473 34.5245 28.8017 34.5245H29.1348C29.2461 34.5245 29.3268 34.5168 29.377 34.5015C29.4271 34.4862 29.4755 34.4557 29.5223 34.4106C29.5818 34.3503 29.6438 34.2602 29.7067 34.1396H29.7644L29.5945 34.6324H28.0803V34.5789H28.15C28.1967 34.5789 28.2401 34.5678 28.2817 34.5457C28.3123 34.5304 28.3335 34.5075 28.3446 34.476C28.3556 34.4455 28.3616 34.3817 28.3616 34.2866V33.0103C28.3616 32.8854 28.3488 32.8089 28.3242 32.78C28.2894 32.7418 28.2316 32.7223 28.15 32.7223H28.0803V32.6687H29.5945L29.6166 33.0995H29.5597C29.5393 32.9959 29.5172 32.9253 29.4925 32.8862C29.4679 32.8472 29.4314 32.8183 29.3829 32.7979C29.3438 32.7834 29.2759 32.7758 29.179 32.7758H28.6403L28.6394 32.7741Z" fill="white"/>
</g>
<defs>
<clipPath id="clip0_526_170">
<rect width="40" height="40" fill="white"/>
</clipPath>
</defs>
</svg>
