<svg width="48" height="48" viewBox="0 0 48 48" fill="none" xmlns="http://www.w3.org/2000/svg">
<g clip-path="url(#clip0_241_1286)">
<mask id="path-1-inside-1_241_1286" fill="white">
<path d="M46.3981 47.8418C46.4032 47.7887 46.4113 47.7367 46.4225 47.6858C46.4327 47.6348 46.446 47.5828 46.4613 47.5328C46.4766 47.4829 46.4939 47.4329 46.5143 47.3839C46.5347 47.336 46.5571 47.2881 46.5816 47.2422C46.6061 47.1953 46.6336 47.1504 46.6632 47.1066C46.6917 47.0628 46.7243 47.0209 46.757 46.9791C46.7896 46.9394 46.8253 46.8986 46.863 46.8619C46.8997 46.8242 46.9395 46.7885 46.9803 46.7558C47.02 46.7232 47.0639 46.6916 47.1077 46.662C47.1516 46.6335 47.1975 46.6059 47.2433 46.5815C47.2892 46.557 47.3371 46.5346 47.3851 46.5142C47.433 46.4938 47.484 46.4754 47.5339 46.4601C47.5839 46.4448 47.6349 46.4316 47.6869 46.4214C47.7379 46.4102 47.7909 46.403 47.8429 46.3979C47.8959 46.3928 47.9489 46.3898 48.002 46.3898V44.8083C47.1128 44.8083 46.3919 44.0884 46.3919 43.1993C46.3919 42.3102 47.1128 41.5893 48.002 41.5893V40.0078C47.1128 40.0078 46.3919 39.2869 46.3919 38.3988C46.3919 37.5107 47.1128 36.7878 48.002 36.7878V35.2073C47.1128 35.2073 46.3919 34.4864 46.3919 33.5973C46.3919 32.7081 47.1128 31.9872 48.002 31.9872V30.4068C47.1128 30.4068 46.3919 29.6859 46.3919 28.7968C46.3919 27.9076 47.1128 27.1867 48.002 27.1867V25.6063C47.1128 25.6063 46.3919 24.8854 46.3919 23.9962C46.3919 23.1071 47.1128 22.3862 48.002 22.3862V20.8058C47.1128 20.8058 46.3919 20.0849 46.3919 19.1957C46.3919 18.3066 47.1128 17.5857 48.002 17.5857V16.0053C47.1128 16.0053 46.3919 15.2844 46.3919 14.3952C46.3919 13.5061 47.1128 12.7852 48.002 12.7852V11.2047C47.1128 11.2047 46.3919 10.4839 46.3919 9.59472C46.3919 8.70558 47.1128 7.98469 48.002 7.98469V6.40423C47.1128 6.40423 46.3919 5.68334 46.3919 4.79421C46.3919 3.90507 47.1128 3.18418 48.002 3.18418V1.60372C47.95 1.60372 47.8969 1.60067 47.8439 1.59557C47.7919 1.59047 47.7389 1.58231 47.6879 1.57212C47.6359 1.5609 47.5849 1.54866 47.535 1.53235C47.485 1.51705 47.435 1.49972 47.3861 1.47933C47.3382 1.45995 47.2892 1.4365 47.2444 1.41203C47.1975 1.38654 47.1526 1.36003 47.1087 1.33046C47.0649 1.30191 47.0221 1.2703 46.9813 1.23767C46.9405 1.20402 46.9007 1.16833 46.864 1.13163C46.8263 1.0939 46.7906 1.05515 46.758 1.01335C46.7254 0.973581 46.6927 0.929736 46.6642 0.885891C46.6346 0.842046 46.6081 0.796162 46.5826 0.751298C46.5581 0.704394 46.5357 0.65647 46.5153 0.608547C46.4959 0.560623 46.4776 0.51066 46.4623 0.459678C46.447 0.408695 46.4337 0.358733 46.4235 0.30775C46.4123 0.255748 46.4052 0.202726 46.3991 0.151744C46.394 0.098722 46.3909 0.0457002 46.3909 -0.00630188H44.8105C44.8105 0.882832 44.0896 1.60372 43.2004 1.60372C42.3113 1.60372 41.5894 0.88895 41.5894 -0.000183983H40.0089C40.0089 0.88895 39.288 1.60984 38.3989 1.60984C37.5098 1.60984 36.7899 0.88895 36.7899 -0.000183983H35.2094C35.2094 0.88895 34.4885 1.60984 33.5994 1.60984C32.7103 1.60984 31.9904 0.88895 31.9904 -0.000183983H30.4099C30.4099 0.88895 29.6891 1.60984 28.7999 1.60984C27.9108 1.60984 27.1899 0.88895 27.1899 -0.000183983H25.6094C25.6094 0.88895 24.8885 1.60984 23.9994 1.60984C23.1103 1.60984 22.3904 0.88895 22.3904 -0.000183983H20.8099C20.8099 0.88895 20.0891 1.60984 19.1999 1.60984C18.3108 1.60984 17.5899 0.88895 17.5899 -0.000183983H16.0094C16.0094 0.88895 15.2885 1.60984 14.3994 1.60984C13.5103 1.60984 12.7904 0.88895 12.7904 -0.000183983H11.2099C11.2099 0.88895 10.4891 1.60984 9.59992 1.60984C8.71079 1.60984 7.98989 0.88895 7.98989 -0.000183983H6.40944C6.40944 0.88895 5.68855 1.60984 4.79941 1.60984C3.91028 1.60984 3.1904 0.88895 3.1904 -0.000183983H1.60995C1.60995 0.0528378 1.60689 0.10484 1.60179 0.157862C1.59669 0.209864 1.58853 0.262886 1.57732 0.313868C1.56712 0.36485 1.55387 0.415833 1.53857 0.465796C1.52328 0.515759 1.50594 0.565721 1.48555 0.614665C1.46516 0.662588 1.44272 0.711531 1.41723 0.757416C1.39276 0.8033 1.36523 0.848164 1.33668 0.892009C1.30711 0.935854 1.2755 0.978679 1.24287 1.01947C1.21024 1.06025 1.17456 1.10002 1.13683 1.13774C1.10012 1.17445 1.06036 1.21014 1.01957 1.24379C0.978784 1.27642 0.935959 1.30803 0.892114 1.33658C0.848269 1.36615 0.802385 1.39266 0.756501 1.41815C0.710617 1.44262 0.662693 1.46607 0.61477 1.48545C0.566846 1.50482 0.515864 1.52317 0.465901 1.53847C0.415938 1.55376 0.363936 1.56702 0.312953 1.57823C0.261971 1.58843 0.208949 1.59659 0.156947 1.60169C0.103925 1.60678 0.0509035 1.60984 -0.00109863 1.60984V3.1903C0.889055 3.1903 1.60893 3.91119 1.60893 4.80033C1.60893 5.68946 0.888036 6.40933 -0.00109863 6.41035V7.99081C0.889055 7.99081 1.60893 8.7117 1.60893 9.60083C1.60893 10.49 0.888036 11.2098 -0.00109863 11.2109V12.7913C0.889055 12.7913 1.60893 13.5122 1.60893 14.4013C1.60893 15.2905 0.888036 16.0104 -0.00109863 16.0114V17.5918C0.889055 17.5918 1.60893 18.3127 1.60893 19.2019C1.60893 20.091 0.888036 20.8119 -0.00109863 20.8119V22.3923C0.889055 22.3923 1.60893 23.1132 1.60893 24.0024C1.60893 24.8915 0.888036 25.6114 -0.00109863 25.6124V27.1928C0.889055 27.1928 1.60893 27.9137 1.60893 28.8029C1.60893 29.692 0.888036 30.4119 -0.00109863 30.4129V31.9934C0.889055 31.9934 1.60893 32.7142 1.60893 33.6034C1.60893 34.4925 0.888036 35.2124 -0.00109863 35.2134V36.7949C0.889055 36.7949 1.60893 37.5148 1.60893 38.4039C1.60893 39.293 0.888036 40.0139 -0.00109863 40.0149V41.5954C0.889055 41.5954 1.60893 42.3153 1.60893 43.2054C1.60893 44.0956 0.888036 44.8144 -0.00109863 44.8154V46.3959C0.0519231 46.3959 0.104945 46.3979 0.157967 46.403C0.209969 46.4081 0.262991 46.4163 0.313973 46.4275C0.365975 46.4377 0.416958 46.451 0.46692 46.4663C0.516883 46.4816 0.566846 46.4989 0.615789 46.5203C0.663713 46.5397 0.712656 46.5621 0.757521 46.5876C0.804424 46.6121 0.849289 46.6396 0.893134 46.6682C0.936979 46.6977 0.979804 46.7293 1.02059 46.762C1.06138 46.7946 1.10114 46.8313 1.13785 46.868C1.17558 46.9047 1.21126 46.9445 1.24389 46.9853C1.27652 47.026 1.30915 47.0689 1.3377 47.1127C1.36625 47.1566 1.39378 47.2024 1.41825 47.2483C1.44374 47.2952 1.46618 47.3421 1.48657 47.3901C1.50594 47.438 1.5243 47.488 1.53959 47.5389C1.55489 47.5889 1.56814 47.6409 1.57834 47.6919C1.58955 47.7439 1.59669 47.7959 1.60281 47.8479C1.60791 47.8999 1.61097 47.9529 1.61097 48.0059H3.19142C3.19142 47.1158 3.91232 46.3959 4.80145 46.3959C5.69058 46.3959 6.41148 47.1158 6.41148 48.0059H7.99193C7.99193 47.1158 8.71283 46.3959 9.60196 46.3959C10.4911 46.3959 11.212 47.1158 11.212 48.0059H12.7924C12.7924 47.1158 13.5133 46.3959 14.4025 46.3959C15.2916 46.3959 16.0125 47.1158 16.0125 48.0059H17.593C17.593 47.1158 18.3138 46.3959 19.203 46.3959C20.0921 46.3959 20.813 47.1158 20.813 48.0059H22.3935C22.3935 47.1158 23.1144 46.3959 24.0035 46.3959C24.8926 46.3959 25.6135 47.1158 25.6135 48.0059H27.194C27.194 47.1158 27.9149 46.3959 28.804 46.3959C29.6931 46.3959 30.414 47.1158 30.414 48.0059H31.9945C31.9945 47.1158 32.7154 46.3959 33.6045 46.3959C34.4936 46.3959 35.2145 47.1158 35.2145 48.0059H36.795C36.795 47.1158 37.5159 46.3959 38.405 46.3959C39.2942 46.3959 40.015 47.1158 40.015 48.0059H41.5955C41.5955 47.1168 42.3164 46.3959 43.2055 46.3959C44.0947 46.3959 44.8156 47.1168 44.8156 48.0059H46.396C46.396 47.9529 46.3991 47.8999 46.4042 47.8479L46.3981 47.8418Z"/>
</mask>
<path d="M46.3981 47.8418C46.4032 47.7887 46.4113 47.7367 46.4225 47.6858C46.4327 47.6348 46.446 47.5828 46.4613 47.5328C46.4766 47.4829 46.4939 47.4329 46.5143 47.3839C46.5347 47.336 46.5571 47.2881 46.5816 47.2422C46.6061 47.1953 46.6336 47.1504 46.6632 47.1066C46.6917 47.0628 46.7243 47.0209 46.757 46.9791C46.7896 46.9394 46.8253 46.8986 46.863 46.8619C46.8997 46.8242 46.9395 46.7885 46.9803 46.7558C47.02 46.7232 47.0639 46.6916 47.1077 46.662C47.1516 46.6335 47.1975 46.6059 47.2433 46.5815C47.2892 46.557 47.3371 46.5346 47.3851 46.5142C47.433 46.4938 47.484 46.4754 47.5339 46.4601C47.5839 46.4448 47.6349 46.4316 47.6869 46.4214C47.7379 46.4102 47.7909 46.403 47.8429 46.3979C47.8959 46.3928 47.9489 46.3898 48.002 46.3898V44.8083C47.1128 44.8083 46.3919 44.0884 46.3919 43.1993C46.3919 42.3102 47.1128 41.5893 48.002 41.5893V40.0078C47.1128 40.0078 46.3919 39.2869 46.3919 38.3988C46.3919 37.5107 47.1128 36.7878 48.002 36.7878V35.2073C47.1128 35.2073 46.3919 34.4864 46.3919 33.5973C46.3919 32.7081 47.1128 31.9872 48.002 31.9872V30.4068C47.1128 30.4068 46.3919 29.6859 46.3919 28.7968C46.3919 27.9076 47.1128 27.1867 48.002 27.1867V25.6063C47.1128 25.6063 46.3919 24.8854 46.3919 23.9962C46.3919 23.1071 47.1128 22.3862 48.002 22.3862V20.8058C47.1128 20.8058 46.3919 20.0849 46.3919 19.1957C46.3919 18.3066 47.1128 17.5857 48.002 17.5857V16.0053C47.1128 16.0053 46.3919 15.2844 46.3919 14.3952C46.3919 13.5061 47.1128 12.7852 48.002 12.7852V11.2047C47.1128 11.2047 46.3919 10.4839 46.3919 9.59472C46.3919 8.70558 47.1128 7.98469 48.002 7.98469V6.40423C47.1128 6.40423 46.3919 5.68334 46.3919 4.79421C46.3919 3.90507 47.1128 3.18418 48.002 3.18418V1.60372C47.95 1.60372 47.8969 1.60067 47.8439 1.59557C47.7919 1.59047 47.7389 1.58231 47.6879 1.57212C47.6359 1.5609 47.5849 1.54866 47.535 1.53235C47.485 1.51705 47.435 1.49972 47.3861 1.47933C47.3382 1.45995 47.2892 1.4365 47.2444 1.41203C47.1975 1.38654 47.1526 1.36003 47.1087 1.33046C47.0649 1.30191 47.0221 1.2703 46.9813 1.23767C46.9405 1.20402 46.9007 1.16833 46.864 1.13163C46.8263 1.0939 46.7906 1.05515 46.758 1.01335C46.7254 0.973581 46.6927 0.929736 46.6642 0.885891C46.6346 0.842046 46.6081 0.796162 46.5826 0.751298C46.5581 0.704394 46.5357 0.65647 46.5153 0.608547C46.4959 0.560623 46.4776 0.51066 46.4623 0.459678C46.447 0.408695 46.4337 0.358733 46.4235 0.30775C46.4123 0.255748 46.4052 0.202726 46.3991 0.151744C46.394 0.098722 46.3909 0.0457002 46.3909 -0.00630188H44.8105C44.8105 0.882832 44.0896 1.60372 43.2004 1.60372C42.3113 1.60372 41.5894 0.88895 41.5894 -0.000183983H40.0089C40.0089 0.88895 39.288 1.60984 38.3989 1.60984C37.5098 1.60984 36.7899 0.88895 36.7899 -0.000183983H35.2094C35.2094 0.88895 34.4885 1.60984 33.5994 1.60984C32.7103 1.60984 31.9904 0.88895 31.9904 -0.000183983H30.4099C30.4099 0.88895 29.6891 1.60984 28.7999 1.60984C27.9108 1.60984 27.1899 0.88895 27.1899 -0.000183983H25.6094C25.6094 0.88895 24.8885 1.60984 23.9994 1.60984C23.1103 1.60984 22.3904 0.88895 22.3904 -0.000183983H20.8099C20.8099 0.88895 20.0891 1.60984 19.1999 1.60984C18.3108 1.60984 17.5899 0.88895 17.5899 -0.000183983H16.0094C16.0094 0.88895 15.2885 1.60984 14.3994 1.60984C13.5103 1.60984 12.7904 0.88895 12.7904 -0.000183983H11.2099C11.2099 0.88895 10.4891 1.60984 9.59992 1.60984C8.71079 1.60984 7.98989 0.88895 7.98989 -0.000183983H6.40944C6.40944 0.88895 5.68855 1.60984 4.79941 1.60984C3.91028 1.60984 3.1904 0.88895 3.1904 -0.000183983H1.60995C1.60995 0.0528378 1.60689 0.10484 1.60179 0.157862C1.59669 0.209864 1.58853 0.262886 1.57732 0.313868C1.56712 0.36485 1.55387 0.415833 1.53857 0.465796C1.52328 0.515759 1.50594 0.565721 1.48555 0.614665C1.46516 0.662588 1.44272 0.711531 1.41723 0.757416C1.39276 0.8033 1.36523 0.848164 1.33668 0.892009C1.30711 0.935854 1.2755 0.978679 1.24287 1.01947C1.21024 1.06025 1.17456 1.10002 1.13683 1.13774C1.10012 1.17445 1.06036 1.21014 1.01957 1.24379C0.978784 1.27642 0.935959 1.30803 0.892114 1.33658C0.848269 1.36615 0.802385 1.39266 0.756501 1.41815C0.710617 1.44262 0.662693 1.46607 0.61477 1.48545C0.566846 1.50482 0.515864 1.52317 0.465901 1.53847C0.415938 1.55376 0.363936 1.56702 0.312953 1.57823C0.261971 1.58843 0.208949 1.59659 0.156947 1.60169C0.103925 1.60678 0.0509035 1.60984 -0.00109863 1.60984V3.1903C0.889055 3.1903 1.60893 3.91119 1.60893 4.80033C1.60893 5.68946 0.888036 6.40933 -0.00109863 6.41035V7.99081C0.889055 7.99081 1.60893 8.7117 1.60893 9.60083C1.60893 10.49 0.888036 11.2098 -0.00109863 11.2109V12.7913C0.889055 12.7913 1.60893 13.5122 1.60893 14.4013C1.60893 15.2905 0.888036 16.0104 -0.00109863 16.0114V17.5918C0.889055 17.5918 1.60893 18.3127 1.60893 19.2019C1.60893 20.091 0.888036 20.8119 -0.00109863 20.8119V22.3923C0.889055 22.3923 1.60893 23.1132 1.60893 24.0024C1.60893 24.8915 0.888036 25.6114 -0.00109863 25.6124V27.1928C0.889055 27.1928 1.60893 27.9137 1.60893 28.8029C1.60893 29.692 0.888036 30.4119 -0.00109863 30.4129V31.9934C0.889055 31.9934 1.60893 32.7142 1.60893 33.6034C1.60893 34.4925 0.888036 35.2124 -0.00109863 35.2134V36.7949C0.889055 36.7949 1.60893 37.5148 1.60893 38.4039C1.60893 39.293 0.888036 40.0139 -0.00109863 40.0149V41.5954C0.889055 41.5954 1.60893 42.3153 1.60893 43.2054C1.60893 44.0956 0.888036 44.8144 -0.00109863 44.8154V46.3959C0.0519231 46.3959 0.104945 46.3979 0.157967 46.403C0.209969 46.4081 0.262991 46.4163 0.313973 46.4275C0.365975 46.4377 0.416958 46.451 0.46692 46.4663C0.516883 46.4816 0.566846 46.4989 0.615789 46.5203C0.663713 46.5397 0.712656 46.5621 0.757521 46.5876C0.804424 46.6121 0.849289 46.6396 0.893134 46.6682C0.936979 46.6977 0.979804 46.7293 1.02059 46.762C1.06138 46.7946 1.10114 46.8313 1.13785 46.868C1.17558 46.9047 1.21126 46.9445 1.24389 46.9853C1.27652 47.026 1.30915 47.0689 1.3377 47.1127C1.36625 47.1566 1.39378 47.2024 1.41825 47.2483C1.44374 47.2952 1.46618 47.3421 1.48657 47.3901C1.50594 47.438 1.5243 47.488 1.53959 47.5389C1.55489 47.5889 1.56814 47.6409 1.57834 47.6919C1.58955 47.7439 1.59669 47.7959 1.60281 47.8479C1.60791 47.8999 1.61097 47.9529 1.61097 48.0059H3.19142C3.19142 47.1158 3.91232 46.3959 4.80145 46.3959C5.69058 46.3959 6.41148 47.1158 6.41148 48.0059H7.99193C7.99193 47.1158 8.71283 46.3959 9.60196 46.3959C10.4911 46.3959 11.212 47.1158 11.212 48.0059H12.7924C12.7924 47.1158 13.5133 46.3959 14.4025 46.3959C15.2916 46.3959 16.0125 47.1158 16.0125 48.0059H17.593C17.593 47.1158 18.3138 46.3959 19.203 46.3959C20.0921 46.3959 20.813 47.1158 20.813 48.0059H22.3935C22.3935 47.1158 23.1144 46.3959 24.0035 46.3959C24.8926 46.3959 25.6135 47.1158 25.6135 48.0059H27.194C27.194 47.1158 27.9149 46.3959 28.804 46.3959C29.6931 46.3959 30.414 47.1158 30.414 48.0059H31.9945C31.9945 47.1158 32.7154 46.3959 33.6045 46.3959C34.4936 46.3959 35.2145 47.1158 35.2145 48.0059H36.795C36.795 47.1158 37.5159 46.3959 38.405 46.3959C39.2942 46.3959 40.015 47.1158 40.015 48.0059H41.5955C41.5955 47.1168 42.3164 46.3959 43.2055 46.3959C44.0947 46.3959 44.8156 47.1168 44.8156 48.0059H46.396C46.396 47.9529 46.3991 47.8999 46.4042 47.8479L46.3981 47.8418Z" fill="white" fill-opacity="0.6" stroke="#D6CEB7" stroke-width="2" mask="url(#path-1-inside-1_241_1286)"/>
<path d="M7.06826 30.3509C6.87045 29.8655 6.58291 29.6524 6.03638 29.5923V29.4862H9.31455V29.6229C8.96583 29.6381 8.43459 29.6983 8.43459 29.942C8.43459 29.9573 8.46518 30.0786 8.54064 30.2612C8.84449 31.0351 9.60311 33.0387 10.2863 34.6477C10.7563 33.4333 11.1662 32.4014 11.6373 31.3083C11.4854 30.929 11.3039 30.5038 11.1815 30.2459C10.9837 29.8054 10.6809 29.6392 10.2557 29.5933V29.4872H13.3982V29.6086C13.0495 29.6239 12.5326 29.6545 12.5326 29.9124C12.5326 29.9277 12.5632 30.0797 12.6386 30.2612C12.9272 31.0351 13.7011 33.16 14.3231 34.663C14.9298 33.0846 15.4763 31.7335 15.9015 30.4885C15.9474 30.3519 15.9769 30.1847 15.9769 30.0939C15.9769 29.7299 15.0511 29.578 14.8237 29.578V29.4872H17.3586V29.578C16.9334 29.6239 16.3715 29.9726 16.1748 30.4885C15.5069 32.1587 15.1429 33.1141 14.4597 34.8445C14.2476 35.3757 14.0957 35.7856 13.8826 36.4535H13.6093C12.9414 34.6171 12.3348 33.0234 11.7423 31.5357C11.3018 32.5227 10.8624 33.7218 10.4219 34.8445C10.2241 35.3604 10.0579 35.7856 9.84477 36.4535H9.54091C8.46314 33.7361 7.91661 32.4463 7.06724 30.3519L7.06826 30.3509Z" fill="black"/>
<path d="M17.3442 36.2404C17.6175 36.2251 17.8 36.1945 18.0121 36.1343C18.3007 36.0436 18.422 35.7856 18.422 35.4512V26.1479C18.422 25.7319 18.1049 25.3832 17.6899 25.3454L16.9945 25.2812V25.0834H19.8026V30.5324H19.8332C20.4103 29.9706 20.9864 29.2874 22.2926 29.2874C23.7038 29.2874 24.3574 30.2438 24.3574 31.6856V35.389C24.3574 35.7224 24.4787 35.9967 24.752 36.118C24.9641 36.2088 25.1466 36.2241 25.4199 36.2394V36.3454H21.8378V36.2394C22.1111 36.2241 22.3385 36.1935 22.5516 36.1333C22.8402 36.0426 22.9615 35.7846 22.9615 35.4502V31.5031C22.9615 30.4559 22.3548 29.8788 21.7012 29.8788C20.5929 29.8788 19.9709 30.5314 19.8036 30.8811V35.3737C19.8036 35.7071 19.9403 35.9804 20.2135 36.1027C20.4409 36.2088 20.6693 36.2241 20.9273 36.2394V36.3454H17.3453V36.2394L17.3442 36.2404Z" fill="black"/>
<path d="M26.2234 36.2404C26.4966 36.2251 26.6791 36.1945 26.8912 36.1343C27.1798 36.0436 27.3011 35.7856 27.3011 35.4512V30.6547C27.2705 30.3356 27.1339 30.0175 26.8912 29.8502C26.7087 29.7289 26.2692 29.6677 25.996 29.6524V29.4546H28.6827V35.3747C28.6827 35.7081 28.8194 35.9814 29.0926 36.1037C29.32 36.2098 29.5484 36.2251 29.8064 36.2404V36.3464H26.2244V36.2404H26.2234ZM26.9371 26.4191C26.9371 25.9032 27.3623 25.4627 27.863 25.4627C28.4248 25.4627 28.8194 25.8726 28.8194 26.3579C28.8194 26.8892 28.4095 27.3449 27.863 27.3449C27.3623 27.3449 26.9371 26.9198 26.9371 26.4191Z" fill="black"/>
<path d="M31.5052 34.404V29.7289H30.0481V29.4862H31.5358V27.1635H32.8562V29.4862H34.9353V29.7289H32.8705V34.2225C32.8705 35.0882 33.1132 35.756 34.039 35.756C34.7222 35.756 35.0556 35.0423 35.1474 34.4662H35.2993C35.178 35.5592 34.4642 36.5004 33.3416 36.5004C32.0966 36.5004 31.5052 35.7571 31.5052 34.406V34.404Z" fill="black"/>
<path d="M35.7856 32.8551C35.7856 31.034 36.9542 29.2884 38.9731 29.2884C40.992 29.2884 41.8118 30.6394 41.8118 32.1118V32.2484H37.2886V32.5064C37.2886 34.4641 37.8198 36.0579 39.5502 36.0579C40.734 36.0579 41.2652 35.5419 41.8424 34.6161L41.9637 34.6915C41.4325 35.7693 40.4159 36.5279 39.1403 36.5279C36.8481 36.5279 35.7856 34.8577 35.7856 32.8541V32.8551ZM40.3394 32.0659C40.3394 30.8515 40.112 29.4403 38.9578 29.4403C38.0013 29.4403 37.3335 30.5181 37.2876 32.0965L40.3384 32.0659H40.3394Z" fill="black"/>
<path d="M14.629 41.5579H13.9998L13.2015 40.4556C13.1423 40.4577 13.0944 40.4587 13.0567 40.4587C13.0414 40.4587 13.0251 40.4587 13.0077 40.4587C12.9904 40.4587 12.972 40.4577 12.9537 40.4556V41.1408C12.9537 41.2897 12.97 41.3815 13.0026 41.4172C13.0465 41.4681 13.1128 41.4936 13.2004 41.4936H13.2922V41.5579H12.2817V41.4936H12.3704C12.4704 41.4936 12.5417 41.461 12.5846 41.3957C12.609 41.3601 12.6213 41.2744 12.6213 41.1398V39.6165C12.6213 39.4676 12.605 39.3758 12.5723 39.3401C12.5275 39.2891 12.4602 39.2637 12.3704 39.2637H12.2817V39.1994H13.1403C13.3911 39.1994 13.5757 39.2178 13.694 39.2545C13.8133 39.2912 13.9142 39.3585 13.9968 39.4564C14.0794 39.5543 14.1212 39.6715 14.1212 39.8071C14.1212 39.9519 14.0743 40.0784 13.9795 40.1844C13.8846 40.2904 13.7388 40.3669 13.54 40.4108L14.0274 41.0868C14.1385 41.2418 14.2344 41.3458 14.3139 41.3968C14.3934 41.4477 14.4985 41.4804 14.6269 41.4946V41.5589L14.629 41.5579ZM12.9547 40.3455C12.9771 40.3455 12.9955 40.3455 13.0118 40.3455C13.0281 40.3455 13.0414 40.3455 13.0516 40.3455C13.2769 40.3455 13.4462 40.2966 13.5604 40.1997C13.6746 40.1028 13.7317 39.9784 13.7317 39.8275C13.7317 39.6766 13.6858 39.5604 13.593 39.4686C13.5002 39.3768 13.3789 39.3299 13.227 39.3299C13.1597 39.3299 13.0689 39.3411 12.9537 39.3626V40.3435L12.9547 40.3455Z" fill="black"/>
<path d="M15.8404 39.3289V40.2609H16.3583C16.4929 40.2609 16.5827 40.2405 16.6275 40.1997C16.6877 40.1467 16.7213 40.0529 16.7285 39.9183H16.7927V40.7391H16.7285C16.7122 40.6239 16.6958 40.5504 16.6795 40.5178C16.6591 40.477 16.6245 40.4454 16.5765 40.422C16.5286 40.3985 16.4562 40.3873 16.3573 40.3873H15.8393V41.1643C15.8393 41.2683 15.8444 41.3325 15.8536 41.3549C15.8628 41.3774 15.8791 41.3957 15.9026 41.409C15.926 41.4222 15.9699 41.4294 16.0351 41.4294H16.4348C16.5684 41.4294 16.6653 41.4202 16.7254 41.4019C16.7856 41.3835 16.8437 41.3468 16.8998 41.2928C16.9712 41.2204 17.0456 41.1123 17.121 40.9675H17.1904L16.9864 41.5589H15.1694V41.4946H15.253C15.3091 41.4946 15.3611 41.4814 15.4111 41.4549C15.4478 41.4365 15.4733 41.409 15.4865 41.3713C15.4998 41.3346 15.5069 41.2581 15.5069 41.1439V39.6124C15.5069 39.4625 15.4916 39.3707 15.4621 39.336C15.4203 39.2902 15.3509 39.2667 15.253 39.2667H15.1694V39.2025H16.9864L17.013 39.7194H16.9446C16.9202 39.595 16.8937 39.5104 16.8641 39.4635C16.8345 39.4166 16.7907 39.3819 16.7326 39.3575C16.6857 39.3401 16.6041 39.3309 16.4878 39.3309H15.8414L15.8404 39.3289Z" fill="black"/>
<path d="M19.403 39.1464V39.9621H19.3388C19.3184 39.8061 19.2807 39.6807 19.2266 39.5879C19.1726 39.4951 19.0961 39.4217 18.9962 39.3666C18.8963 39.3126 18.7933 39.2851 18.6862 39.2851C18.5659 39.2851 18.466 39.3218 18.3874 39.3952C18.3089 39.4686 18.2692 39.5522 18.2692 39.646C18.2692 39.7184 18.2936 39.7837 18.3436 39.8428C18.416 39.9295 18.5863 40.0457 18.8565 40.1905C19.0767 40.3088 19.2266 40.3995 19.3082 40.4628C19.3887 40.526 19.4509 40.6004 19.4938 40.6861C19.5376 40.7717 19.559 40.8614 19.559 40.9552C19.559 41.1337 19.4897 41.2877 19.351 41.4172C19.2123 41.5466 19.0339 41.6109 18.8167 41.6109C18.7484 41.6109 18.6842 41.6058 18.624 41.5956C18.5883 41.5895 18.5139 41.5691 18.4007 41.5324C18.2875 41.4957 18.2161 41.4773 18.1856 41.4773C18.155 41.4773 18.1336 41.4855 18.1172 41.5038C18.0999 41.5212 18.0877 41.5568 18.0795 41.6119H18.0153V40.8033H18.0795C18.1091 40.9726 18.1499 41.099 18.2008 41.1837C18.2518 41.2683 18.3293 41.3376 18.4343 41.3927C18.5394 41.4488 18.6546 41.4763 18.779 41.4763C18.9238 41.4763 19.038 41.4375 19.1226 41.3621C19.2062 41.2856 19.249 41.1949 19.249 41.0909C19.249 41.0327 19.2327 40.9746 19.2011 40.9155C19.1695 40.8563 19.1196 40.8013 19.0523 40.7503C19.0074 40.7156 18.884 40.6412 18.6821 40.529C18.4802 40.4159 18.3375 40.3261 18.2518 40.2588C18.1662 40.1915 18.1019 40.1171 18.0581 40.0365C18.0143 39.955 17.9918 39.8663 17.9918 39.7684C17.9918 39.5991 18.0571 39.4533 18.1866 39.3309C18.3161 39.2086 18.4813 39.1474 18.6821 39.1474C18.8075 39.1474 18.9401 39.178 19.0808 39.2392C19.1461 39.2677 19.1909 39.283 19.2185 39.283C19.249 39.283 19.2735 39.2738 19.2919 39.2565C19.3112 39.2382 19.3265 39.2025 19.3378 39.1474H19.402L19.403 39.1464Z" fill="black"/>
<path d="M21.3485 41.4936V41.5579H20.338V41.4936H20.4216C20.5195 41.4936 20.5899 41.4651 20.6337 41.408C20.6612 41.3713 20.6755 41.2815 20.6755 41.1398V39.6165C20.6755 39.4972 20.6684 39.4186 20.6531 39.3799C20.6419 39.3513 20.6174 39.3259 20.5817 39.3055C20.5307 39.2779 20.4777 39.2637 20.4216 39.2637H20.338V39.1994H21.3485V39.2637H21.2628C21.167 39.2637 21.0966 39.2922 21.0528 39.3483C21.0242 39.385 21.0089 39.4747 21.0089 39.6165V41.1398C21.0089 41.2591 21.0161 41.3376 21.0314 41.3764C21.0426 41.4049 21.0671 41.4304 21.1048 41.4508C21.1548 41.4783 21.2078 41.4926 21.2628 41.4926H21.3485V41.4936Z" fill="black"/>
<path d="M21.9949 41.5579V41.4936H22.0836C22.1835 41.4936 22.2539 41.462 22.2957 41.3978C22.3212 41.359 22.3344 41.2734 22.3344 41.1408V39.6175C22.3344 39.4706 22.3181 39.3779 22.2855 39.3411C22.2406 39.2902 22.1733 39.2647 22.0836 39.2647H21.9949V39.2004H22.9544C23.3072 39.2004 23.5753 39.2402 23.7589 39.3208C23.9424 39.4013 24.0903 39.5339 24.2024 39.7205C24.3146 39.9071 24.3707 40.1232 24.3707 40.3669C24.3707 40.6952 24.2707 40.9695 24.0719 41.1898C23.8486 41.4355 23.507 41.5589 23.0492 41.5589H21.9959L21.9949 41.5579ZM22.6678 41.3876C22.8147 41.4202 22.938 41.4365 23.038 41.4365C23.3072 41.4365 23.5305 41.3417 23.7079 41.1531C23.8853 40.9644 23.974 40.7075 23.974 40.3843C23.974 40.061 23.8853 39.802 23.7079 39.6144C23.5305 39.4268 23.3031 39.333 23.0247 39.333C22.9207 39.333 22.8014 39.3503 22.6678 39.383V41.3876Z" fill="black"/>
<path d="M25.7493 39.3289V40.2609H26.2673C26.4019 40.2609 26.4916 40.2405 26.5365 40.1997C26.5966 40.1467 26.6303 40.0529 26.6374 39.9183H26.7017V40.7391H26.6374C26.6211 40.6239 26.6048 40.5504 26.5885 40.5178C26.5681 40.477 26.5334 40.4454 26.4855 40.422C26.4376 40.3985 26.3652 40.3873 26.2663 40.3873H25.7483V41.1643C25.7483 41.2683 25.7534 41.3325 25.7626 41.3549C25.7717 41.3774 25.788 41.3957 25.8115 41.409C25.8349 41.4222 25.8788 41.4294 25.9441 41.4294H26.3438C26.4773 41.4294 26.5742 41.4202 26.6344 41.4019C26.6945 41.3835 26.7526 41.3468 26.8087 41.2928C26.8801 41.2204 26.9545 41.1123 27.03 40.9675H27.0993L26.8954 41.5589H25.0784V41.4946H25.162C25.2181 41.4946 25.2701 41.4814 25.32 41.4549C25.3567 41.4365 25.3822 41.409 25.3955 41.3713C25.4087 41.3346 25.4159 41.2581 25.4159 41.1439V39.6124C25.4159 39.4625 25.4006 39.3707 25.371 39.336C25.3292 39.2902 25.2599 39.2667 25.162 39.2667H25.0784V39.2025H26.8954L26.9219 39.7194H26.8536C26.8291 39.595 26.8026 39.5104 26.773 39.4635C26.7435 39.4166 26.6996 39.3819 26.6415 39.3575C26.5946 39.3401 26.513 39.3309 26.3968 39.3309H25.7503L25.7493 39.3289Z" fill="black"/>
<path d="M27.6316 39.1994H28.2719L29.7137 40.9675V39.6073C29.7137 39.4625 29.6974 39.3717 29.6648 39.336C29.6219 39.2871 29.5536 39.2626 29.4608 39.2626H29.3793V39.1984H30.2001V39.2626H30.1165C30.0166 39.2626 29.9462 39.2922 29.9044 39.3534C29.8789 39.3901 29.8656 39.4747 29.8656 39.6073V41.5946H29.8034L28.2485 39.696V41.148C28.2485 41.2928 28.2638 41.3835 28.2954 41.4192C28.3392 41.4681 28.4075 41.4926 28.4993 41.4926H28.5829V41.5568H27.7621V41.4926H27.8437C27.9446 41.4926 28.016 41.462 28.0578 41.4019C28.0833 41.3652 28.0966 41.2805 28.0966 41.148V39.5084C28.0282 39.4288 27.9762 39.3758 27.9405 39.3503C27.9049 39.3248 27.8529 39.3014 27.7845 39.2789C27.7509 39.2688 27.6999 39.2637 27.6316 39.2637V39.1994Z" fill="black"/>
<path d="M32.8929 39.1464L32.9469 39.9478H32.8929C32.8205 39.7082 32.7185 39.5349 32.5849 39.4299C32.4514 39.3238 32.2913 39.2718 32.1047 39.2718C31.9477 39.2718 31.807 39.3116 31.6805 39.3911C31.5541 39.4706 31.4552 39.5971 31.3828 39.7714C31.3104 39.9458 31.2737 40.162 31.2737 40.4199C31.2737 40.633 31.3073 40.8186 31.3767 40.9746C31.445 41.1316 31.548 41.2509 31.6856 41.3346C31.8233 41.4182 31.9793 41.46 32.1557 41.46C32.3086 41.46 32.4442 41.4273 32.5605 41.3621C32.6767 41.2968 32.8062 41.1663 32.9469 40.9716L33.001 41.0062C32.8827 41.2163 32.745 41.3692 32.587 41.4671C32.4289 41.565 32.2423 41.6129 32.0252 41.6129C31.6346 41.6129 31.3318 41.4681 31.1177 41.1786C30.9576 40.9634 30.8781 40.7095 30.8781 40.4169C30.8781 40.1813 30.9311 39.9652 31.0361 39.7684C31.1421 39.5716 31.2869 39.4186 31.4715 39.3106C31.656 39.2025 31.8579 39.1484 32.0772 39.1484C32.2474 39.1484 32.4157 39.1902 32.5819 39.2738C32.6308 39.2993 32.6655 39.3126 32.6859 39.3126C32.7175 39.3126 32.744 39.3014 32.7675 39.28C32.7981 39.2484 32.8195 39.2055 32.8317 39.1495H32.8929V39.1464Z" fill="black"/>
<path d="M34.3673 39.3289V40.2609H34.8853C35.0199 40.2609 35.1096 40.2405 35.1545 40.1997C35.2147 40.1467 35.2483 40.0529 35.2555 39.9183H35.3197V40.7391H35.2555C35.2391 40.6239 35.2228 40.5504 35.2065 40.5178C35.1861 40.477 35.1514 40.4454 35.1035 40.422C35.0556 40.3985 34.9832 40.3873 34.8843 40.3873H34.3663V41.1643C34.3663 41.2683 34.3714 41.3325 34.3806 41.3549C34.3898 41.3774 34.4061 41.3957 34.4295 41.409C34.453 41.4222 34.4968 41.4294 34.5621 41.4294H34.9618C35.0954 41.4294 35.1922 41.4202 35.2524 41.4019C35.3126 41.3835 35.3707 41.3468 35.4268 41.2928C35.4981 41.2204 35.5726 41.1123 35.648 40.9675H35.7174L35.5134 41.5589H33.6964V41.4946H33.78C33.8361 41.4946 33.8881 41.4814 33.9381 41.4549C33.9748 41.4365 34.0003 41.409 34.0135 41.3713C34.0268 41.3346 34.0339 41.2581 34.0339 41.1439V39.6124C34.0339 39.4625 34.0186 39.3707 33.9891 39.336C33.9472 39.2902 33.8779 39.2667 33.78 39.2667H33.6964V39.2025H35.5134L35.5399 39.7194H35.4716C35.4471 39.595 35.4206 39.5104 35.3911 39.4635C35.3615 39.4166 35.3177 39.3819 35.2595 39.3575C35.2126 39.3401 35.1311 39.3309 35.0148 39.3309H34.3684L34.3673 39.3289Z" fill="black"/>
</g>
<defs>
<clipPath id="clip0_241_1286">
<rect width="48" height="48" fill="white"/>
</clipPath>
</defs>
</svg>
