<svg width="48" height="63" viewBox="0 0 48 63" fill="none" xmlns="http://www.w3.org/2000/svg">
<path fill-rule="evenodd" clip-rule="evenodd" d="M24 0C37.2548 0 48 10.7452 48 24C48 35.6118 39.7536 45.2975 28.7978 47.5203L24.7456 53.3228C24.6615 53.4438 24.5499 53.5424 24.4201 53.6106C24.2903 53.6787 24.1462 53.7143 24 53.7143C23.8538 53.7143 23.7097 53.6787 23.5799 53.6106C23.4501 53.5424 23.3385 53.4438 23.2544 53.3228L19.2022 47.5203C8.24637 45.2975 0 35.6118 0 24C0 10.7452 10.7452 0 24 0Z" fill="url(#paint0_linear_223_1210)"/>
<g filter="url(#filter0_f_223_1210)">
<ellipse cx="24" cy="58.5" rx="7" ry="2.5" fill="black" fill-opacity="0.2"/>
</g>
<rect x="2" y="2" width="44" height="44" rx="22" fill="white"/>
<path d="M27.2324 29.1624H20.7675C20.688 29.1605 20.6233 29.0968 20.6223 29.0173V28.6732C20.6233 28.5937 20.688 28.53 20.7675 28.5281H27.2324C27.312 28.53 27.3766 28.5937 27.3776 28.6732V29.0173C27.3766 29.0968 27.312 29.1605 27.2324 29.1624ZM22.758 21.8463C22.759 21.2537 23.1776 20.7446 23.7593 20.6303C24.34 20.5149 24.9217 20.8271 25.1484 21.374C25.3741 21.9219 25.1822 22.5533 24.69 22.8814C24.1968 23.2105 23.5406 23.1459 23.1219 22.7273C22.8883 22.4936 22.7571 22.1764 22.758 21.8463ZM23.3716 21.9199L23.9343 22.078H23.9333C24.0258 22.1028 24.1242 22.075 24.1879 22.0044L24.7248 21.381H24.7258C24.7994 21.2795 24.7825 21.1383 24.688 21.0558C24.5936 20.9743 24.4514 20.9783 24.3619 21.0648L23.9244 21.5739L23.4909 21.4546C23.4282 21.4357 23.3616 21.4436 23.3049 21.4744C23.2483 21.5063 23.2065 21.559 23.1896 21.6216C23.1717 21.6842 23.1797 21.7509 23.2125 21.8065C23.2453 21.8632 23.298 21.904 23.3606 21.9199L23.3716 21.9199ZM26.8278 33.5653V29.6458H24.2546V33.5653H26.8278ZM23.5874 13.3806C23.5914 13.2394 23.6679 13.1102 23.7883 13.0376C23.9096 12.966 24.0597 12.96 24.185 13.0237C24.3113 13.0873 24.3958 13.2106 24.4097 13.3508C24.4246 13.491 24.366 13.6292 24.2546 13.7167V13.8181C25.3006 13.485 25.767 14.1164 26.5127 13.9583C26.5554 13.9504 26.6002 13.9613 26.635 13.9892C26.6688 14.015 26.6887 14.0568 26.6877 14.1005V15.6636C26.6877 15.7272 26.6449 15.7839 26.5833 15.8008C25.7302 16.0553 25.1425 15.3862 24.2546 15.6686V17.3281L28.8364 22.241C28.9229 22.3295 28.9707 22.4489 28.9687 22.5722V33.5655H27.3092V29.6409C27.6224 29.6001 27.858 29.3337 27.859 29.0175C27.859 28.7072 27.8998 28.4547 27.6731 28.231C27.5568 28.1116 27.3967 28.045 27.2306 28.045H20.7674C20.4204 28.046 20.14 28.3274 20.138 28.6734C20.138 28.9837 20.0973 29.2362 20.324 29.4599C20.4214 29.5604 20.5497 29.624 20.6879 29.6409V33.5655H19.0334V22.5673C19.0324 22.4431 19.0801 22.3247 19.1666 22.2362L23.7484 17.3232V13.7168C23.644 13.6363 23.5854 13.5109 23.5874 13.3806ZM23.7147 25.0312C23.7147 24.711 23.4572 24.4525 23.137 24.4505H21.2001C20.8799 24.4525 20.6214 24.711 20.6194 25.0312V26.5048C20.6214 26.8249 20.8799 27.0835 21.2001 27.0854H23.135C23.4542 27.0835 23.7127 26.8239 23.7127 26.5048L23.7147 25.0312ZM26.8 24.4505H24.8651C24.5459 24.4525 24.2874 24.711 24.2874 25.0312V26.5048C24.2894 26.8239 24.5469 27.0825 24.8651 27.0854H26.8C27.1202 27.0835 27.3787 26.8249 27.3807 26.5048V25.0312C27.3787 24.711 27.1202 24.4525 26.8 24.4505ZM24 20.1232C23.1767 20.1213 22.4668 20.7009 22.3037 21.5073C22.1406 22.3147 22.5702 23.1241 23.3309 23.4413C24.0905 23.7585 24.9685 23.495 25.4279 22.8119C25.8873 22.1288 25.7997 21.216 25.2191 20.6323C24.8979 20.3062 24.4584 20.1222 24 20.1213L24 20.1232ZM24.7637 25.0332V26.5078C24.7627 26.5326 24.7726 26.5575 24.7905 26.5754C24.8084 26.5943 24.8323 26.6042 24.8581 26.6042H26.8C26.8259 26.6052 26.8507 26.5953 26.8696 26.5764C26.8875 26.5585 26.8975 26.5336 26.8965 26.5078V25.0312C26.8975 25.0053 26.8875 24.9805 26.8696 24.9616C26.8507 24.9437 26.8259 24.9337 26.8 24.9347H24.8651C24.8392 24.9318 24.8124 24.9417 24.7925 24.9596C24.7736 24.9785 24.7627 25.0043 24.7636 25.0312L24.7637 25.0332ZM23.132 24.9367H21.2C21.1742 24.9357 21.1493 24.9457 21.1304 24.9646C21.1125 24.9825 21.1026 25.0073 21.1036 25.0332V26.5077C21.1026 26.5336 21.1125 26.5585 21.1304 26.5764C21.1493 26.5952 21.1742 26.6052 21.2 26.6042H23.135C23.1598 26.6042 23.1847 26.5943 23.2016 26.5754C23.2195 26.5575 23.2294 26.5326 23.2284 26.5077V25.0312C23.2294 25.0063 23.2205 24.9815 23.2026 24.9636C23.1857 24.9457 23.1618 24.9347 23.137 24.9347L23.132 24.9367ZM35.4675 21.7091L32.581 18.945C32.402 18.77 32.1614 18.6745 31.9108 18.6775H26.1685L29.1872 21.9079C29.3154 22.0362 29.4039 22.1983 29.4417 22.3762H35.1998C35.3559 22.3723 35.4941 22.2748 35.5498 22.1297C35.6055 21.9835 35.5677 21.8184 35.4543 21.712L35.4675 21.7091ZM32.7332 30.7096H30.7982H30.7992C30.7734 30.7096 30.7495 30.7195 30.7316 30.7384C30.7137 30.7563 30.7038 30.7811 30.7048 30.806V32.2826C30.7038 32.3084 30.7137 32.3323 30.7316 32.3502C30.7495 32.3681 30.7734 32.378 30.7992 32.377H32.7342H32.7332C32.759 32.378 32.7839 32.3681 32.8018 32.3502C32.8197 32.3323 32.8306 32.3084 32.8306 32.2826V30.806C32.8306 30.7802 32.8207 30.7553 32.8028 30.7374C32.7849 30.7185 32.759 30.7086 32.7332 30.7096ZM34.0874 22.8594V33.5653H29.4471V22.8594H34.0874ZM33.3238 30.806C33.3228 30.4869 33.0633 30.2283 32.7441 30.2283H30.8092C30.49 30.2283 30.2315 30.4869 30.2315 30.806V32.2826C30.2315 32.6018 30.49 32.8603 30.8092 32.8603H32.7441C33.0633 32.8603 33.3228 32.6028 33.3238 32.2826V30.806ZM33.3238 27.474C33.3228 27.1549 33.0633 26.8953 32.7441 26.8944H30.8092C30.49 26.8953 30.2315 27.1549 30.2315 27.474V28.9486C30.2315 29.2678 30.49 29.5273 30.8092 29.5283H32.7441C33.0633 29.5273 33.3228 29.2678 33.3238 28.9486V27.474ZM33.3238 24.142C33.3228 23.8229 33.0633 23.5633 32.7441 23.5624H30.8092C30.49 23.5633 30.2315 23.8229 30.2315 24.142V25.6166C30.2315 25.9358 30.49 26.1953 30.8092 26.1963H32.7441C33.0633 26.1953 33.3228 25.9358 33.3238 25.6166V24.142ZM32.7332 27.3776H30.7982H30.7992C30.7734 27.3776 30.7495 27.3875 30.7316 27.4064C30.7137 27.4243 30.7038 27.4491 30.7048 27.474V28.9486C30.7038 28.9734 30.7137 28.9983 30.7316 29.0162C30.7495 29.0351 30.7734 29.045 30.7992 29.045H32.7342H32.7332C32.759 29.046 32.7849 29.0361 32.8028 29.0172C32.8207 28.9993 32.8306 28.9744 32.8306 28.9486V27.474C32.8306 27.4482 32.8207 27.4233 32.8028 27.4054C32.7849 27.3865 32.759 27.3766 32.7332 27.3776ZM13.9126 33.5653V22.8594H18.553V33.5653H13.9126ZM14.6762 25.6158V25.6168C14.6772 25.936 14.9367 26.1955 15.2559 26.1965H17.1909C17.51 26.1955 17.7685 25.936 17.7685 25.6168V24.1423C17.7685 23.8231 17.51 23.5636 17.1909 23.5626H15.2559C14.9367 23.5636 14.6772 23.8231 14.6762 24.1423V25.6158ZM14.6762 28.9478V28.9488C14.6772 29.268 14.9367 29.5275 15.2559 29.5285H17.1909C17.51 29.5275 17.7685 29.268 17.7685 28.9488V27.4743C17.7685 27.1551 17.51 26.8956 17.1909 26.8946H15.2559C14.9367 26.8956 14.6772 27.1551 14.6762 27.4743V28.9478ZM14.6762 32.2829C14.6772 32.6031 14.9367 32.8606 15.2559 32.8606H17.1909C17.51 32.8606 17.7685 32.6021 17.7685 32.2829V30.8063C17.7685 30.4872 17.51 30.2286 17.1909 30.2286H15.2559C14.9367 30.2286 14.6772 30.4872 14.6762 30.8063V32.2829ZM15.2569 32.3774H17.1919H17.1909C17.2157 32.3784 17.2406 32.3684 17.2585 32.3505C17.2764 32.3326 17.2853 32.3088 17.2853 32.2829V30.8063C17.2853 30.7815 17.2764 30.7566 17.2585 30.7387C17.2406 30.7198 17.2167 30.7099 17.1909 30.7099H15.2559C15.2301 30.7089 15.2052 30.7188 15.1873 30.7377C15.1684 30.7556 15.1585 30.7805 15.1595 30.8063V32.2829C15.1595 32.3107 15.1714 32.3366 15.1913 32.3545C15.2122 32.3724 15.239 32.3813 15.2668 32.3774H15.2569ZM34.9175 34.0468H13.0724C12.9322 34.0468 12.8178 34.1612 12.8178 34.3014V34.8105C12.8178 34.8781 12.8447 34.9427 12.8924 34.9904C12.9401 35.0382 13.0048 35.065 13.0724 35.065H34.9274C35.0626 35.058 35.169 34.9467 35.169 34.8105V34.3014C35.169 34.1661 35.0626 34.0538 34.9274 34.0468H34.9175ZM15.2668 29.0455H17.2018H17.2008C17.2266 29.0455 17.2505 29.0356 17.2684 29.0167C17.2863 28.9988 17.2962 28.9739 17.2952 28.9491V27.4745C17.2962 27.4496 17.2863 27.4248 17.2684 27.4069C17.2505 27.388 17.2266 27.378 17.2008 27.378H15.2658H15.2668C15.241 27.377 15.2151 27.387 15.1972 27.4059C15.1793 27.4238 15.1694 27.4486 15.1694 27.4745V28.9491C15.1694 28.9749 15.1793 28.9998 15.1972 29.0177C15.2151 29.0366 15.241 29.0465 15.2668 29.0455ZM15.2668 25.7135H17.2018H17.2008C17.2266 25.7135 17.2505 25.7036 17.2684 25.6847C17.2863 25.6668 17.2962 25.6419 17.2952 25.6171V24.1425C17.2962 24.1176 17.2863 24.0928 17.2684 24.0749C17.2505 24.056 17.2266 24.046 17.2008 24.046H15.2658H15.2668C15.241 24.045 15.2151 24.055 15.1972 24.0739C15.1793 24.0918 15.1694 24.1166 15.1694 24.1425V25.6171C15.1694 25.6429 15.1793 25.6678 15.1972 25.6857C15.2151 25.7046 15.241 25.7145 15.2668 25.7135ZM23.7582 33.5657V29.6462H21.172V33.5657H23.7582ZM18.8124 21.9083L21.831 18.6779H16.0888C15.8382 18.6749 15.5976 18.7703 15.4186 18.9454L12.545 21.7095C12.4317 21.8159 12.3939 21.9809 12.4496 22.1271C12.5052 22.2732 12.6435 22.3707 12.7996 22.3737H18.5706C18.6054 22.1987 18.6891 22.0376 18.8124 21.9083ZM32.7337 24.0461H30.7988C30.7729 24.0461 30.7491 24.056 30.7312 24.0749C30.7133 24.0928 30.7033 24.1177 30.7043 24.1425V25.6171C30.7033 25.642 30.7133 25.6668 30.7312 25.6847C30.7491 25.7036 30.7729 25.7136 30.7988 25.7136H32.7337H32.7327C32.7586 25.7146 32.7844 25.7046 32.8023 25.6857C32.8202 25.6678 32.8302 25.643 32.8302 25.6171V24.1425C32.8302 24.1167 32.8202 24.0918 32.8023 24.0739C32.7844 24.055 32.7586 24.0451 32.7327 24.0461H32.7337Z" fill="#B17FFA"/>
<defs>
<filter id="filter0_f_223_1210" x="15" y="54" width="18" height="9" filterUnits="userSpaceOnUse" color-interpolation-filters="sRGB">
<feFlood flood-opacity="0" result="BackgroundImageFix"/>
<feBlend mode="normal" in="SourceGraphic" in2="BackgroundImageFix" result="shape"/>
<feGaussianBlur stdDeviation="1" result="effect1_foregroundBlur_223_1210"/>
</filter>
<linearGradient id="paint0_linear_223_1210" x1="24" y1="0" x2="24" y2="53.7143" gradientUnits="userSpaceOnUse">
<stop stop-color="#C39BFB"/>
<stop offset="1" stop-color="#8D3DFF"/>
</linearGradient>
</defs>
</svg>
