<svg width="48" height="63" viewBox="0 0 48 63" fill="none" xmlns="http://www.w3.org/2000/svg">
<path fill-rule="evenodd" clip-rule="evenodd" d="M24 0C37.2548 0 48 10.7452 48 24C48 35.6118 39.7536 45.2975 28.7978 47.5203L24.7456 53.3228C24.6615 53.4438 24.5499 53.5424 24.4201 53.6106C24.2903 53.6787 24.1462 53.7143 24 53.7143C23.8538 53.7143 23.7097 53.6787 23.5799 53.6106C23.4501 53.5424 23.3385 53.4438 23.2544 53.3228L19.2022 47.5203C8.24637 45.2975 0 35.6118 0 24C0 10.7452 10.7452 0 24 0Z" fill="url(#paint0_linear_223_1240)"/>
<g filter="url(#filter0_f_223_1240)">
<ellipse cx="24" cy="58.5" rx="7" ry="2.5" fill="black" fill-opacity="0.2"/>
</g>
<rect x="2" y="2" width="44" height="44" rx="22" fill="#AEA0FE" fill-opacity="0.56"/>
<path fill-rule="evenodd" clip-rule="evenodd" d="M27.4623 28.9377V28.887V27.7922C27.4882 25.6286 27.5389 22.9558 26.5973 21.6831C26.2413 21.1999 25.8595 20.7922 25.4777 20.4104C24.9427 19.8506 24.4088 19.3156 24.0518 18.5779C23.67 19.3156 23.1609 19.8506 22.6259 20.4104C22.2441 20.7922 21.8623 21.1999 21.5064 21.6831C20.5647 22.9558 20.6154 25.6286 20.6413 27.7922V28.887V28.9377H27.4623ZM31.0766 28.9377C31.1273 26.5702 31.4326 22.9818 29.3713 21.4545C27.9206 20.3598 26.1895 19.7234 25.0441 18.7052C25.3245 19.1377 25.6804 19.4947 26.0623 19.8765C26.4441 20.2842 26.8518 20.6909 27.2336 21.2258C28.3273 22.7272 28.2766 25.5271 28.2508 27.818V28.9128V28.9635H31.0767L31.0766 28.9377ZM23.1091 18.7309C21.9636 19.7491 20.2325 20.3855 18.7818 21.4803C16.7196 23.0075 17.0507 26.5971 17.0765 28.9634H19.9272V28.9127V27.8179C19.9014 25.527 19.8506 22.727 20.9195 21.2504C21.3013 20.7154 21.709 20.3088 22.0908 19.9011C22.4727 19.5193 22.8287 19.1376 23.1091 18.7309ZM31.1013 29.7013H16.9491C16.7204 29.7013 16.5414 29.7779 16.3893 29.93C16.262 30.0573 16.1606 30.2353 16.1606 30.4391V30.9223L31.8907 30.9233V30.4401C31.8907 30.2363 31.8142 30.0583 31.662 29.931C31.5348 29.7779 31.331 29.7013 31.1013 29.7013ZM23.6688 16.1091V16.0077C23.3377 15.9311 23.0325 15.7531 22.7779 15.4986C22.4468 15.1675 22.2181 14.6842 22.2181 14.1751C22.2181 13.8192 22.3195 13.4622 22.4985 13.1828C22.5492 13.1063 22.5999 13.0297 22.6516 12.9541C22.7024 13.5905 22.9828 14.1503 23.4153 14.5828C23.8985 15.066 24.5607 15.3723 25.2985 15.3723C25.3999 15.3723 25.4765 15.3723 25.5789 15.3465C25.4775 15.4737 25.3751 15.5752 25.2478 15.6776C25.0191 15.8556 24.7129 15.9828 24.4076 16.0335V16.0842V17.7646C24.4076 18.0451 24.2296 18.2479 24.0258 18.2479C23.8219 18.2479 23.644 18.0192 23.644 17.7646V16.1091L23.6688 16.1091ZM28.174 33.2403V31.6871H30.7195V33.2403H32.2975C32.5013 33.2403 32.6793 33.4182 32.6793 33.6221C32.6793 33.8259 32.5013 34.0039 32.2975 34.0039H15.752C15.5482 34.0039 15.3702 33.8259 15.3702 33.6221C15.3702 33.4182 15.5482 33.2403 15.752 33.2403H17.4324V31.6871H19.9779V33.2403H20.7415V31.6871H23.7194V33.2403H24.4831V31.6871H27.4363V33.2403H28.174Z" fill="white" fill-opacity="0.8"/>
<defs>
<filter id="filter0_f_223_1240" x="15" y="54" width="18" height="9" filterUnits="userSpaceOnUse" color-interpolation-filters="sRGB">
<feFlood flood-opacity="0" result="BackgroundImageFix"/>
<feBlend mode="normal" in="SourceGraphic" in2="BackgroundImageFix" result="shape"/>
<feGaussianBlur stdDeviation="1" result="effect1_foregroundBlur_223_1240"/>
</filter>
<linearGradient id="paint0_linear_223_1240" x1="24" y1="53.7143" x2="24" y2="0" gradientUnits="userSpaceOnUse">
<stop stop-color="white" stop-opacity="0.9"/>
<stop offset="0.649038" stop-color="#AEA0FE"/>
</linearGradient>
</defs>
</svg>
