<svg width="28" height="28" viewBox="0 0 28 28" fill="none" xmlns="http://www.w3.org/2000/svg">
<path fill-rule="evenodd" clip-rule="evenodd" d="M17.4623 18.9377V18.887V17.7922C17.4882 15.6286 17.5389 12.9558 16.5973 11.6831C16.2413 11.1999 15.8595 10.7922 15.4777 10.4104C14.9427 9.8506 14.4088 9.31565 14.0518 8.57787C13.67 9.31565 13.1609 9.8506 12.6259 10.4104C12.2441 10.7922 11.8623 11.1999 11.5064 11.6831C10.5647 12.9558 10.6154 15.6286 10.6413 17.7922V18.887V18.9377H17.4623ZM21.0766 18.9377C21.1273 16.5702 21.4326 12.9818 19.3713 11.4545C17.9206 10.3598 16.1895 9.72343 15.0441 8.7052C15.3245 9.13772 15.6804 9.4947 16.0623 9.87652C16.4441 10.2842 16.8518 10.6909 17.2336 11.2258C18.3273 12.7272 18.2766 15.5271 18.2508 17.818V18.9128V18.9635H21.0767L21.0766 18.9377ZM13.1091 8.73091C11.9636 9.74909 10.2325 10.3855 8.7818 11.4803C6.71957 13.0075 7.05069 16.5971 7.07655 18.9634H9.9272V18.9127V17.8179C9.90135 15.527 9.85064 12.727 10.9195 11.2504C11.3013 10.7154 11.709 10.3088 12.0908 9.9011C12.4727 9.51928 12.8287 9.1376 13.1091 8.73091ZM21.1013 19.7013H6.94907C6.72038 19.7013 6.54139 19.7779 6.38928 19.93C6.262 20.0573 6.16058 20.2353 6.16058 20.4391V20.9223L21.8907 20.9233V20.4401C21.8907 20.2363 21.8142 20.0583 21.662 19.931C21.5348 19.7779 21.331 19.7013 21.1013 19.7013ZM13.6688 6.10909V6.00767C13.3377 5.93111 13.0325 5.75312 12.7779 5.49858C12.4468 5.16747 12.2181 4.68424 12.2181 4.17515C12.2181 3.81919 12.3195 3.46221 12.4985 3.18283C12.5492 3.10626 12.5999 3.0297 12.6516 2.95413C12.7024 3.5905 12.9828 4.15029 13.4153 4.58282C13.8985 5.06604 14.5607 5.37231 15.2985 5.37231C15.3999 5.37231 15.4765 5.37231 15.5789 5.34646C15.4775 5.47373 15.3751 5.57516 15.2478 5.67757C15.0191 5.85556 14.7129 5.98283 14.4076 6.03353V6.08424V7.76465C14.4076 8.04506 14.2296 8.24788 14.0258 8.24788C13.8219 8.24788 13.644 8.01918 13.644 7.76465V6.10911L13.6688 6.10909ZM18.174 23.2403V21.6871H20.7195V23.2403H22.2975C22.5013 23.2403 22.6793 23.4182 22.6793 23.6221C22.6793 23.8259 22.5013 24.0039 22.2975 24.0039H5.752C5.54816 24.0039 5.37018 23.8259 5.37018 23.6221C5.37018 23.4182 5.54816 23.2403 5.752 23.2403H7.4324V21.6871H9.97786V23.2403H10.7415V21.6871H13.7194V23.2403H14.4831V21.6871H17.4363V23.2403H18.174Z" fill="white"/>
</svg>
